<svg width="2500" height="2500" viewBox="0 0 2500 2500" fill="none" xmlns="http://www.w3.org/2000/svg">
<g clip-path="url(#clip0_53_330)">
<mask id="mask0_53_330" style="mask-type:alpha" maskUnits="userSpaceOnUse" x="0" y="0" width="2500" height="2500">
<rect width="2500" height="2500" fill="#D9D9D9"/>
</mask>
<g mask="url(#mask0_53_330)">
<path d="M1774.51 2401.71C1348 2467.25 886.832 2281.38 600.94 1972.73C315.875 1666.88 206.083 1238.25 245.813 841.881C284.556 447.324 470.181 81.2441 780.501 -176.872C1089.01 -435.977 1522.21 -587.119 1954.11 -515.857C2388.81 -445.416 2823.03 -149.772 2994.61 256.21C3166.19 662.192 3075.14 1178.51 2835 1597.05C2593.04 2014.59 2202.01 2334.35 1774.51 2401.71Z" stroke="#E9E9E9" stroke-width="4"/>
<path d="M2876.88 84.6395C3140.6 428.704 3198.75 924.075 3063.77 1324.1C2930.87 1722.06 2604.85 2024.67 2235.22 2180.12C1867.66 2335.57 1454.43 2348.01 1076.49 2198.77C698.557 2051.61 355.923 1742.78 210.563 1328.25C63.1264 911.639 115.041 387.251 391.224 41.1133C667.408 -305.024 1167.86 -472.912 1653.78 -462.548C2139.7 -450.112 2611.08 -259.425 2876.88 84.6395Z" stroke="#E9E9E9" stroke-width="4"/>
</g>
</g>
<defs>
<clipPath id="clip0_53_330">
<rect width="2500" height="2500" fill="white"/>
</clipPath>
</defs>
</svg>
