<svg width="2500" height="2500" viewBox="0 0 2500 2500" fill="none" xmlns="http://www.w3.org/2000/svg">
<g clip-path="url(#clip0_55_2)">
<mask id="mask0_55_2" style="mask-type:alpha" maskUnits="userSpaceOnUse" x="0" y="0" width="2500" height="2500">
<rect width="2500" height="2500" fill="#D9D9D9"/>
</mask>
<g mask="url(#mask0_55_2)">
<path d="M1393.63 2428.35C1052 2480.85 682.619 2331.97 453.625 2084.75C225.293 1839.77 137.352 1496.44 169.175 1178.96C200.208 862.928 348.889 569.705 597.449 362.959C844.556 155.421 1191.54 34.36 1537.48 91.4391C1885.67 147.861 2233.47 384.666 2370.91 709.849C2508.34 1035.03 2435.41 1448.59 2243.06 1783.83C2049.26 2118.28 1736.05 2374.4 1393.63 2428.35Z" stroke="#E9E9E9" stroke-width="4"/>
<path d="M2276.98 572.587C2488.29 848.137 2534.88 1244.86 2426.73 1565.23C2320.24 1883.94 2059.01 2126.29 1762.84 2250.79C1468.33 2375.28 1137.22 2385.24 834.391 2265.73C531.564 2147.87 257.024 1900.54 140.552 1568.55C22.4165 1234.9 64.0136 814.938 285.31 537.728C506.606 260.518 907.602 126.062 1296.95 134.362C1686.3 144.322 2064 297.036 2276.98 572.587Z" stroke="#E9E9E9" stroke-width="4"/>
</g>
</g>
<defs>
<clipPath id="clip0_55_2">
<rect width="2500" height="2500" fill="white"/>
</clipPath>
</defs>
</svg>
